<?xml version="1.0" encoding="utf-8"?>
<!-- Generator: Adobe Illustrator 25.0.0, SVG Export Plug-In . SVG Version: 6.00 Build 0)  -->
<svg version="1.1" id="Layer_1" xmlns="http://www.w3.org/2000/svg" xmlns:xlink="http://www.w3.org/1999/xlink" x="0px" y="0px"
	 viewBox="0 0 758.8 333.7" style="enable-background:new 0 0 758.8 333.7;" xml:space="preserve">
<style type="text/css">
	.st0{fill:#FD7A60;}
	.st1{fill:none;}
</style>
<g id="Layer_3">
	<path class="st0" d="M607.8,259.3c8.7-8,22-17.3,37.8-15.7c12.3,1.2,18.1,7.9,33.4,12.4c15.4,4.5,28.6,3.2,37.4,1.3
		c-14.6,10.9-26.4,12.7-34.6,12.1c-17.6-1.1-25.7-13.1-45.7-14.9C624.2,253.5,614.3,256.5,607.8,259.3z"/>
	<path class="st0" d="M43.4,259.3c8.7-8,22-17.3,37.8-15.7c12.3,1.2,18.1,7.9,33.4,12.4c15.4,4.5,28.6,3.2,37.4,1.3
		c-14.6,10.9-26.4,12.7-34.6,12.1c-17.6-1.1-25.7-13.1-45.7-14.9C59.9,253.5,50,256.5,43.4,259.3z"/>
	<g>
		<g>
			<path class="st0" d="M177.4,262.5c0.5,3.2,2.9,4.8,6.2,4.8c3.3,0,5.4-1.5,5.4-4.3c0-2.7-1.4-3.9-6.2-5.2
				c-5.7-1.6-7.9-3.3-7.9-6.8c0-3.9,3.3-6.5,8.3-6.5c5.9,0,8.4,3.1,8.6,6.6h-3.4c-0.4-2.5-2-4.1-5.4-4.1c-3.2,0-4.8,1.4-4.8,3.7
				c0,2.3,1.4,3.2,5.8,4.4c6.7,1.9,8.3,4.2,8.3,7.6c0,4.1-3.1,7.1-9.1,7.1c-5.6,0-9-2.8-9.4-7.3H177.4z"/>
			<path class="st0" d="M202.2,243.4V254c1-1.7,2.9-3,6-3c2.9,0,6.3,1.4,6.3,6.5v12h-3.2V258c0-2.8-1.2-4.4-4.1-4.4
				c-3.2,0-4.9,1.9-4.9,5.6v10.4H199v-26.1H202.2z"/>
			<path class="st0" d="M224.2,261c0,3.6,1.7,6.4,5.2,6.4c3.2,0,4.2-2.1,4.6-3h3.2c-0.7,2.3-2.6,5.5-8,5.5c-6.3,0-8.4-4.5-8.4-9.5
				c0-4.5,2.4-9.4,8.6-9.4c6.3,0,8.1,4.4,8.1,8.6c0,0.1,0,1.3,0,1.4H224.2z M234.3,258.8c-0.1-3.1-1.5-5.4-4.9-5.4
				c-4,0-4.9,3.3-5.1,5.4H234.3z"/>
			<path class="st0" d="M255.8,244.8h3.4v10.4h12.7v-10.4h3.4v24.7h-3.4v-11.7h-12.7v11.7h-3.4V244.8z"/>
			<path class="st0" d="M297.4,265.5c0,1.3,0.1,3.1,0.3,4h-3c-0.1-0.6-0.3-1.6-0.3-2.8c-0.8,1.8-2.8,3.1-6,3.1c-4.9,0-6.4-3-6.4-5.5
				c0-2.7,1.9-5.8,9.1-5.8c1.2,0,2.1,0,3.1,0v-1.8c0-1.7-0.5-3.5-3.9-3.5c-2.9,0-3.9,1.2-4.3,3.2h-3.2c0.3-3,2.2-5.5,7.5-5.5
				c4.2,0,7,1.5,7,5.7V265.5z M294.3,260.7c-0.8,0-1.9,0-3.2,0c-4.8,0-5.8,1.8-5.8,3.4c0,1.8,1.2,3.2,3.7,3.2c3.9,0,5.2-2.4,5.2-6.3
				V260.7z"/>
			<path class="st0" d="M306.6,264.3c0.4,2.1,2.1,3.3,4.5,3.3c2.8,0,3.9-1.3,3.9-2.9c0-1.6-1.3-2.5-4.7-3.3
				c-4.9-1.2-6.2-2.8-6.2-5.3c0-2.4,1.8-5.1,6.7-5.1c4.8,0,6.7,2.4,7,5.2h-3.2c-0.3-1.5-1.2-2.9-3.9-2.9c-2.3,0-3.3,1-3.3,2.5
				c0,1.4,0.8,2.1,4.1,2.9c5.1,1.2,6.7,2.8,6.7,5.7c0,3.4-2.9,5.4-7.2,5.4c-4.1,0-7.2-1.8-7.6-5.6H306.6z"/>
			<path class="st0" d="M356.6,269.5H354c-0.1-0.7-0.3-1.8-0.3-3.6c-1.4,2.8-4.1,3.9-8,3.9c-7.1,0-10.6-5.5-10.6-12.6
				c0-7.2,4.1-12.8,11.7-12.8c5.8,0,9,2.8,9.8,7.2h-3.3c-0.8-2.7-2.7-4.6-6.6-4.6c-5.6,0-8.1,4.5-8.1,10.2c0,5.3,2.3,10,7.6,10
				c5.8,0,7-3.7,7-8.2v-0.2h-7.1v-2.7h10.4C356.6,259.8,356.6,269.2,356.6,269.5z"/>
			<path class="st0" d="M364.3,269.5v-26.1h3.3v26.1H364.3z"/>
			<path class="st0" d="M391.5,260.1c0,5.3-2.5,9.7-8.9,9.7c-6.2,0-8.7-4.6-8.7-9.6c0-4.8,2.9-9.2,8.9-9.2
				C388.5,251,391.5,254.9,391.5,260.1z M377.3,260.2c0,4.2,1.9,7.2,5.5,7.2c3.7,0,5.4-2.9,5.4-7.2c0-3.9-1.8-6.7-5.5-6.7
				C379.1,253.5,377.3,256.2,377.3,260.2z"/>
			<path class="st0" d="M397.8,243.4h3.3v10.4c0.9-1.5,2.7-2.9,6-2.9c4.9,0,7.7,3.6,7.7,8.9c0,5.5-2.6,10-8.3,10
				c-3.1,0-4.7-1.2-5.4-2.6c0,0.7-0.1,1.5-0.1,2.3h-3.2c0-1,0.1-2.9,0.1-5.1V243.4z M411.4,260c0-3.8-1.7-6.4-5.1-6.4
				c-4,0-5.4,2.3-5.4,6.6c0,4.4,1.1,7.1,5.3,7.1C409.7,267.3,411.4,264.3,411.4,260z"/>
			<path class="st0" d="M435.1,265.5c0,1.3,0.1,3.1,0.3,4h-3c-0.1-0.6-0.3-1.6-0.3-2.8c-0.8,1.8-2.8,3.1-6,3.1c-4.9,0-6.4-3-6.4-5.5
				c0-2.7,1.9-5.8,9.1-5.8c1.2,0,2.1,0,3.1,0v-1.8c0-1.7-0.5-3.5-3.9-3.5c-2.9,0-3.9,1.2-4.3,3.2h-3.2c0.3-3,2.2-5.5,7.5-5.5
				c4.2,0,7,1.5,7,5.7V265.5z M432,260.7c-0.8,0-1.9,0-3.2,0c-4.8,0-5.8,1.8-5.8,3.4c0,1.8,1.2,3.2,3.7,3.2c3.9,0,5.2-2.4,5.2-6.3
				V260.7z"/>
			<path class="st0" d="M442.8,269.5v-26.1h3.3v26.1H442.8z"/>
			<path class="st0" d="M469.3,244.8v24.7h-3.4v-24.7H469.3z"/>
			<path class="st0" d="M477.4,257c0-3.2,0-4.8-0.1-5.7h3.2c0.1,0.5,0.1,2,0.1,2.6c0.9-1.6,2.7-2.9,5.6-2.9c2.6,0,4.3,1.1,5.1,3.1
				c0.9-1.6,2.9-3.1,5.9-3.1c3,0,6,1.4,6,6.2v12.3H500v-11.8c0-2.2-0.8-4.1-3.7-4.1c-3.1,0-4.4,2.4-4.4,5.3v10.7h-3.2v-12
				c0-2.2-1-3.9-3.6-3.9c-2.8,0-4.5,2-4.5,5.6v10.4h-3.2V257z"/>
			<path class="st0" d="M514.2,267.3v9.4H511v-20c0-2.5,0-4.2-0.1-5.4h3.2c0.1,0.6,0.1,1.9,0.1,2.9c1-1.9,2.9-3.3,6.2-3.3
				c4.3,0,7.5,3.1,7.5,9.1c0,6.1-3.6,9.7-8.3,9.7C516.8,269.8,515.1,268.8,514.2,267.3z M524.6,260.2c0-4.4-1.9-6.7-5.1-6.7
				c-4.1,0-5.3,2.6-5.3,6.9c0,4,0.8,6.8,5.1,6.8C522.6,267.3,524.6,264.7,524.6,260.2z"/>
			<path class="st0" d="M548.3,265.5c0,1.3,0.1,3.1,0.3,4h-3c-0.1-0.6-0.3-1.6-0.3-2.8c-0.8,1.8-2.8,3.1-6,3.1c-4.9,0-6.4-3-6.4-5.5
				c0-2.7,1.9-5.8,9.1-5.8c1.2,0,2.1,0,3.1,0v-1.8c0-1.7-0.5-3.5-3.9-3.5c-2.9,0-3.9,1.2-4.3,3.2h-3.2c0.3-3,2.2-5.5,7.5-5.5
				c4.2,0,7,1.5,7,5.7V265.5z M545.2,260.7c-0.8,0-1.9,0-3.2,0c-4.8,0-5.8,1.8-5.8,3.4c0,1.8,1.2,3.2,3.7,3.2c3.9,0,5.2-2.4,5.2-6.3
				V260.7z"/>
			<path class="st0" d="M571.2,263.7c-0.8,3.6-3.3,6.1-8,6.1c-5.6,0-8.5-3.4-8.5-9.5c0-5.2,2.9-9.4,8.7-9.4c5.3,0,7.5,3.3,7.8,6.3
				h-3.3c-0.4-2.1-1.6-3.9-4.6-3.9c-3.6,0-5.2,2.9-5.2,6.9c0,4.7,1.8,7.1,5.2,7.1c2.8,0,4-1.6,4.7-3.7H571.2z"/>
			<path class="st0" d="M574.4,251.4h3.2v-5.3h3.2v5.3h4v2.4h-4v11.4c0,1.5,0.4,2.2,2.1,2.2c0.5,0,1.1,0,1.5-0.1v2.2
				c-0.8,0.3-1.9,0.3-2.6,0.3c-2.9,0-4.3-1-4.3-4v-11.9h-3.2V251.4z"/>
		</g>
	</g>
	<g>
		<path class="st0" d="M42,211v-40.8h2.7c4,13.2,9.3,22.5,16,27.8c6.7,5.3,15,8,25.1,8c15.5,0,23.3-4.9,23.3-14.8
			c0-4.2-1.9-7.4-5.7-9.6c-5.9-3.3-13.5-5.9-22.8-7.8c-10.3-2.7-19-6.4-26-10.9c-8.4-5.5-12.5-14.1-12.5-26s3.6-21.3,11-28.4
			s17-10.6,29.2-10.6c7.5,0,15.1,1.8,23,5.2c2.9,1.2,5.1,1.8,6.6,1.8c1.5,0,2.8-0.5,3.9-1.6c1.1-1.1,2.4-3,3.9-5.9h2.5v34.9h-2.7
			c-7.8-19.8-19.8-29.6-36-29.6c-7.1,0-12.5,1.2-16,3.8s-5.2,5.7-5.2,9.5c0,2.3,0.5,4.1,1.6,5.4c1.1,1.3,1.9,2.2,2.5,2.9
			c0.6,0.6,1.6,1.2,3,1.9c1.4,0.7,2.5,1.2,3.4,1.6c0.9,0.4,2.3,0.9,4.2,1.5c1.9,0.6,3.3,1,4.2,1.1c10.3,2.6,17.8,4.8,22.4,6.7
			s8.9,4.2,13,7c8.4,5.8,12.5,15.1,12.5,27.9s-3.8,22.6-11.4,29.2c-7.6,6.6-18,9.9-31.2,9.9c-9.4,0-18.6-2.2-27.4-6.6
			c-1.8-1.2-3.3-1.8-4.3-1.8c-3.4,0-6.6,2.8-9.8,8.4L42,211L42,211z"/>
		<path class="st0" d="M134.9,100.2h55.9v104.5h12.8v4.1h-67.8v-4.1h12.5V104.3h-13.5V100.2z M169.3,84.4c-8.1,0-13.8-2.1-17.2-6.2
			s-5.1-9.2-5.1-15.3s1.9-11.1,5.6-15.1c3.7-3.9,9.4-5.9,17-5.9c7.6,0,13.4,1.8,17.3,5.4c4,3.6,5.9,8.7,5.9,15.3
			c0,6.6-1.9,11.9-5.7,15.8C183.3,82.4,177.4,84.4,169.3,84.4z"/>
		<path class="st0" d="M267.7,154.4c4.3-2.8,8.5-3.6,10.7-3.9c13-0.2,26.1-0.4,39.1-0.6c1.4-34.7-15.2-52-49.7-52
			c-17,0-31.1,4.8-42.1,14.4s-16.5,23.4-16.5,41.4s4.9,32.1,14.7,42.2c9.8,10.1,24.5,15.2,44.1,15.2c15,0,26.3-3,33.9-9.1
			c7.5-6.1,12.7-14.6,15.6-25.6l-4.1-0.7c-5.5,18.9-17,28.3-34.7,28.3c-9.4,0-16-3.8-19.8-11.4c-0.8-1.5-1.4-3-1.9-4.4
			c0,0-0.1-0.3-0.2-0.6c-0.1-0.2-1.4-4.2-1.4-9c0.1-7.6,3.6-14,3.9-14.6C260.8,161.4,263,157.5,267.7,154.4z M253.3,150.1
			c-1.2,0.7-2.2,1.3-3.2,1.9c1-1.3,2.3-3.3,3.2-5.5c1.1-2.7,0.5-3.3,1.4-6.8c0.8-3.2,1.9-5.6,2.8-7.2c-0.8,0.9-2,2.2-3,4.1
			c-0.4,0.7-0.7,1.3-1,1.9c-1,2.3-1.4,4.2-1.5,4.7c-0.2,1-1.8,6.5-8.6,13.4c-0.9,0.9-2,2-3.6,3.2c-0.1,0.1-0.2,0.2-0.3,0.3
			c-2.6,2.1-4.7,4-6.4,5.5c6.9-9.4,8.9-15.5,9.5-19.4c0.2-1.2,0.6-5.1,2.5-9.7c0.7-1.7,1.1-2.3,2.7-5.4c4.3-8.2,3.8-8.4,5.4-10.9
			c1.1-1.7,4.3-6.5,10.1-8.9c3.5-1.4,10.5-3,13.6,0.5c0.9,1,1.2,2.2,1.4,3c1,0.9,2.2,2.2,3.2,4c0.5,0.9,1.3,2.3,1.9,4.3
			c0.1,0.3,0.2,0.5,0.2,0.6c0.1,0.3,0.2,0.6,0.3,0.7c0.6,1.3,1,2.1,1,2.1c0.3,0.5,0.8,1.4,1,2.2c0,0.1,0,0.2,0,0.4
			c0,0.3-0.2,0.4-0.6,0.9c-0.1,0.1-0.2,0.2-0.3,0.4c-0.1,0.2-0.2,0.3-0.2,0.4c0,0.1,0,0.2,0,0.4v0.1c0,0.1,0,0.2,0,0.2
			c0.2,1-0.2,2.6-0.2,2.6c-0.5,2.4-0.8,3.6-1.5,4.7c-0.2,0.4-1,1.5-2.1,2.3c-3.3,2.4-8.2,0.7-9.3,0.3c-3.1-1.1-5-3-5.9-4.1
			c0.3,1.3,1,3.1,2.3,4.8c0.4,0.6,0.8,1,1.3,1.4c-2.4,0.6-5.3,1.5-8.6,2.8C259.5,147,256.7,148.2,253.3,150.1z"/>
		<path class="st0" d="M326.2,100.2h55v21c2.4-7,6.2-12.6,11.2-16.9c5-4.3,12.6-6.4,22.8-6.4c23.6,0,35.4,12.7,35.4,38.1v68.7h12.8
			v4.1h-64.5v-4.1h9.3v-74.1c0-9.1-0.6-15-1.8-17.7c-1.2-2.7-3.4-4-6.6-4c-4.9,0-9.2,3.2-12.9,9.6c-3.7,6.4-5.6,14.1-5.6,23.3v63
			h9.8v4.1h-64.8v-4.1h12.5V104.3h-12.5L326.2,100.2L326.2,100.2z"/>
		<path class="st0" d="M466.8,100.2h55v21c2.4-7,6.2-12.6,11.2-16.9c5-4.3,12.6-6.4,22.8-6.4c23.6,0,35.4,12.7,35.4,38.1v68.7h12.8
			v4.1h-64.5v-4.1h9.3v-74.1c0-9.1-0.6-15-1.8-17.7c-1.2-2.7-3.4-4-6.6-4c-4.9,0-9.2,3.2-12.9,9.6c-3.7,6.4-5.6,14.1-5.6,23.3v63
			h9.8v4.1h-64.8v-4.1h12.5V104.3h-12.5L466.8,100.2L466.8,100.2z"/>
		<path class="st0" d="M622.7,195.8c-9.8-10.1-14.7-24.2-14.7-42.2s5.5-31.8,16.5-41.4c11-9.6,25-14.4,42.1-14.4
			c34.5,0,51.1,17.3,49.7,52H652v8.9c0,14.9,1.9,26.2,5.7,33.8c3.8,7.6,10.4,11.4,19.8,11.4c17.6,0,29.2-9.4,34.7-28.3l4.1,0.7
			c-2.9,10.9-8.1,19.5-15.6,25.6c-7.5,6.1-18.8,9.1-33.9,9.1C647.2,211,632.5,206,622.7,195.8z M652.2,145.3h23.5v-11.2
			c0-12.3-0.7-20.7-2.2-25.2c-1.5-4.5-4.3-6.7-8.7-6.7s-7.5,2.4-9.6,7.2c-2,4.8-3.1,13-3.1,24.7V145.3z"/>
	</g>
	<path class="st1" d="M285.9,129.1c0,0.3-0.2,0.4-0.6,0.9c-0.1,0.1-0.2,0.2-0.3,0.4c-0.1,0.2-0.2,0.3-0.2,0.4c0,0.1,0,0.2,0,0.4v0.1
		c0,0.1,0,0.2,0,0.2c0.2,1-0.2,2.6-0.2,2.6c-0.5,2.4-0.8,3.6-1.5,4.7c-0.2,0.4-1,1.5-2.1,2.3c-3.3,2.4-8.2,0.7-9.3,0.3
		c-3.1-1.1-5-3-5.9-4.1c0.3,1.3,1,3.1,2.3,4.8c0.4,0.6,0.8,1,1.3,1.4c-2.4,0.6-5.3,1.5-8.6,2.8c-1.3,0.5-4.1,1.7-7.5,3.6
		c-1.2,0.7-2.2,1.3-3.2,1.9c1-1.3,2.3-3.3,3.2-5.5c1.1-2.7,0.5-3.3,1.4-6.8c0.8-3.2,1.9-5.6,2.8-7.2c-0.8,0.9-2,2.2-3,4.1
		c-0.4,0.7-0.7,1.3-1,1.9c-1,2.3-1.4,4.2-1.5,4.7c-0.2,1-1.8,6.5-8.6,13.4c-0.9,0.9-2,2-3.6,3.2c-0.1,0.1-0.2,0.2-0.3,0.3
		c-2.6,2.1-4.7,4-6.4,5.5c6.9-9.4,8.9-15.5,9.5-19.4c0.2-1.2,0.6-5.1,2.5-9.7c0.7-1.7,1.1-2.3,2.7-5.4c4.3-8.2,3.8-8.4,5.4-10.9
		c1.1-1.7,4.3-6.5,10.1-8.9c3.5-1.4,10.5-3,13.6,0.5c0.9,1,1.2,2.2,1.4,3c1,0.9,2.2,2.2,3.2,4c0.5,0.9,1.3,2.3,1.9,4.3
		c0.1,0.3,0.2,0.5,0.2,0.6c0.1,0.3,0.2,0.6,0.3,0.7c0.6,1.3,1,2.1,1,2.1c0.3,0.5,0.8,1.4,1,2.2C285.9,128.8,285.9,128.9,285.9,129.1
		z"/>
</g>
</svg>
