<?xml version="1.0" encoding="utf-8"?>
<!-- Generator: Adobe Illustrator 25.0.0, SVG Export Plug-In . SVG Version: 6.00 Build 0)  -->
<svg version="1.1" id="Layer_1" xmlns="http://www.w3.org/2000/svg" xmlns:xlink="http://www.w3.org/1999/xlink" x="0px" y="0px"
	 viewBox="0 0 758.8 801.4" style="enable-background:new 0 0 758.8 801.4;" xml:space="preserve">
<style type="text/css">
	.st0{fill:#FD7A60;}
	.st1{fill:none;}
</style>
<g id="Layer_3">
	<path class="st0" d="M607.8,727c8.7-8,22-17.3,37.8-15.7c12.3,1.2,18.1,7.9,33.4,12.4c15.4,4.5,28.6,3.2,37.4,1.3
		c-14.6,10.9-26.4,12.7-34.6,12.1c-17.6-1.1-25.7-13.1-45.7-14.9C624.2,721.2,614.3,724.2,607.8,727z"/>
	<path class="st0" d="M43.4,727c8.7-8,22-17.3,37.8-15.7c12.3,1.2,18.1,7.9,33.4,12.4c15.4,4.5,28.6,3.2,37.4,1.3
		c-14.6,10.9-26.4,12.7-34.6,12.1C99.9,736,91.8,724,71.7,722.2C59.9,721.2,50,724.2,43.4,727z"/>
	<g>
		<g>
			<path class="st0" d="M177.4,730.2c0.5,3.2,2.9,4.8,6.2,4.8c3.3,0,5.4-1.5,5.4-4.3c0-2.7-1.4-3.9-6.2-5.2
				c-5.7-1.6-7.9-3.3-7.9-6.8c0-3.9,3.3-6.5,8.3-6.5c5.9,0,8.4,3.1,8.6,6.6h-3.4c-0.4-2.5-2-4.1-5.4-4.1c-3.2,0-4.8,1.4-4.8,3.7
				c0,2.3,1.4,3.2,5.8,4.4c6.7,1.9,8.3,4.2,8.3,7.6c0,4.1-3.1,7.1-9.1,7.1c-5.6,0-9-2.8-9.4-7.3H177.4z"/>
			<path class="st0" d="M202.2,711.1v10.5c1-1.7,2.9-3,6-3c2.9,0,6.3,1.4,6.3,6.5v12h-3.2v-11.5c0-2.8-1.2-4.4-4.1-4.4
				c-3.2,0-4.9,1.9-4.9,5.6v10.4H199v-26.1H202.2z"/>
			<path class="st0" d="M224.2,728.7c0,3.6,1.7,6.4,5.2,6.4c3.2,0,4.2-2.1,4.6-3h3.2c-0.7,2.3-2.6,5.5-8,5.5c-6.3,0-8.4-4.5-8.4-9.5
				c0-4.5,2.4-9.4,8.6-9.4c6.3,0,8.1,4.4,8.1,8.6c0,0.1,0,1.3,0,1.4H224.2z M234.3,726.5c-0.1-3.1-1.5-5.4-4.9-5.4
				c-4,0-4.9,3.3-5.1,5.4H234.3z"/>
			<path class="st0" d="M255.8,712.4h3.4v10.4h12.7v-10.4h3.4v24.7h-3.4v-11.7h-12.7v11.7h-3.4V712.4z"/>
			<path class="st0" d="M297.4,733.1c0,1.3,0.1,3.1,0.3,4h-3c-0.1-0.6-0.3-1.6-0.3-2.8c-0.8,1.8-2.8,3.1-6,3.1c-4.9,0-6.4-3-6.4-5.5
				c0-2.7,1.9-5.8,9.1-5.8c1.2,0,2.1,0,3.1,0v-1.8c0-1.7-0.5-3.5-3.9-3.5c-2.9,0-3.9,1.2-4.3,3.2h-3.2c0.3-3,2.2-5.5,7.5-5.5
				c4.2,0,7,1.5,7,5.7V733.1z M294.3,728.4c-0.8,0-1.9,0-3.2,0c-4.8,0-5.8,1.8-5.8,3.4c0,1.8,1.2,3.2,3.7,3.2c3.9,0,5.2-2.4,5.2-6.3
				V728.4z"/>
			<path class="st0" d="M306.6,731.9c0.4,2.1,2.1,3.3,4.5,3.3c2.8,0,3.9-1.3,3.9-2.9c0-1.6-1.3-2.5-4.7-3.3
				c-4.9-1.2-6.2-2.8-6.2-5.3c0-2.4,1.8-5.1,6.7-5.1c4.8,0,6.7,2.4,7,5.2h-3.2c-0.3-1.5-1.2-2.9-3.9-2.9c-2.3,0-3.3,1-3.3,2.5
				c0,1.4,0.8,2.1,4.1,2.9c5.1,1.2,6.7,2.8,6.7,5.7c0,3.4-2.9,5.4-7.2,5.4c-4.1,0-7.2-1.8-7.6-5.6H306.6z"/>
			<path class="st0" d="M356.6,737.2H354c-0.1-0.7-0.3-1.8-0.3-3.6c-1.4,2.8-4.1,3.9-8,3.9c-7.1,0-10.6-5.5-10.6-12.6
				c0-7.2,4.1-12.8,11.7-12.8c5.8,0,9,2.8,9.8,7.2h-3.3c-0.8-2.7-2.7-4.6-6.6-4.6c-5.6,0-8.1,4.5-8.1,10.2c0,5.3,2.3,10,7.6,10
				c5.8,0,7-3.7,7-8.2v-0.2h-7.1v-2.7h10.4C356.6,727.5,356.6,736.9,356.6,737.2z"/>
			<path class="st0" d="M364.3,737.2v-26.1h3.3v26.1H364.3z"/>
			<path class="st0" d="M391.5,727.8c0,5.3-2.5,9.7-8.9,9.7c-6.2,0-8.7-4.6-8.7-9.6c0-4.8,2.9-9.2,8.9-9.2
				C388.5,718.6,391.5,722.6,391.5,727.8z M377.3,727.8c0,4.2,1.9,7.2,5.5,7.2c3.7,0,5.4-2.9,5.4-7.2c0-3.9-1.8-6.7-5.5-6.7
				C379.1,721.1,377.3,723.9,377.3,727.8z"/>
			<path class="st0" d="M397.8,711.1h3.3v10.4c0.9-1.5,2.7-2.9,6-2.9c4.9,0,7.7,3.6,7.7,8.9c0,5.5-2.6,10-8.3,10
				c-3.1,0-4.7-1.2-5.4-2.6c0,0.7-0.1,1.5-0.1,2.3h-3.2c0-1,0.1-2.9,0.1-5.1V711.1z M411.4,727.6c0-3.8-1.7-6.4-5.1-6.4
				c-4,0-5.4,2.3-5.4,6.6c0,4.4,1.1,7.1,5.3,7.1C409.7,734.9,411.4,731.9,411.4,727.6z"/>
			<path class="st0" d="M435.1,733.1c0,1.3,0.1,3.1,0.3,4h-3c-0.1-0.6-0.3-1.6-0.3-2.8c-0.8,1.8-2.8,3.1-6,3.1c-4.9,0-6.4-3-6.4-5.5
				c0-2.7,1.9-5.8,9.1-5.8c1.2,0,2.1,0,3.1,0v-1.8c0-1.7-0.5-3.5-3.9-3.5c-2.9,0-3.9,1.2-4.3,3.2h-3.2c0.3-3,2.2-5.5,7.5-5.5
				c4.2,0,7,1.5,7,5.7V733.1z M432,728.4c-0.8,0-1.9,0-3.2,0c-4.8,0-5.8,1.8-5.8,3.4c0,1.8,1.2,3.2,3.7,3.2c3.9,0,5.2-2.4,5.2-6.3
				V728.4z"/>
			<path class="st0" d="M442.8,737.2v-26.1h3.3v26.1H442.8z"/>
			<path class="st0" d="M469.3,712.4v24.7h-3.4v-24.7H469.3z"/>
			<path class="st0" d="M477.4,724.7c0-3.2,0-4.8-0.1-5.7h3.2c0.1,0.5,0.1,2,0.1,2.6c0.9-1.6,2.7-2.9,5.6-2.9c2.6,0,4.3,1.1,5.1,3.1
				c0.9-1.6,2.9-3.1,5.9-3.1c3,0,6,1.4,6,6.2v12.3H500v-11.8c0-2.2-0.8-4.1-3.7-4.1c-3.1,0-4.4,2.4-4.4,5.3v10.7h-3.2v-12
				c0-2.2-1-3.9-3.6-3.9c-2.8,0-4.5,2-4.5,5.6v10.4h-3.2V724.7z"/>
			<path class="st0" d="M514.2,735v9.4H511v-20c0-2.5,0-4.2-0.1-5.4h3.2c0.1,0.6,0.1,1.9,0.1,2.9c1-1.9,2.9-3.3,6.2-3.3
				c4.3,0,7.5,3.1,7.5,9.1c0,6.1-3.6,9.7-8.3,9.7C516.8,737.5,515.1,736.4,514.2,735z M524.6,727.9c0-4.4-1.9-6.7-5.1-6.7
				c-4.1,0-5.3,2.6-5.3,6.9c0,4,0.8,6.8,5.1,6.8C522.6,734.9,524.6,732.4,524.6,727.9z"/>
			<path class="st0" d="M548.3,733.1c0,1.3,0.1,3.1,0.3,4h-3c-0.1-0.6-0.3-1.6-0.3-2.8c-0.8,1.8-2.8,3.1-6,3.1c-4.9,0-6.4-3-6.4-5.5
				c0-2.7,1.9-5.8,9.1-5.8c1.2,0,2.1,0,3.1,0v-1.8c0-1.7-0.5-3.5-3.9-3.5c-2.9,0-3.9,1.2-4.3,3.2h-3.2c0.3-3,2.2-5.5,7.5-5.5
				c4.2,0,7,1.5,7,5.7V733.1z M545.2,728.4c-0.8,0-1.9,0-3.2,0c-4.8,0-5.8,1.8-5.8,3.4c0,1.8,1.2,3.2,3.7,3.2c3.9,0,5.2-2.4,5.2-6.3
				V728.4z"/>
			<path class="st0" d="M571.2,731.4c-0.8,3.6-3.3,6.1-8,6.1c-5.6,0-8.5-3.4-8.5-9.5c0-5.2,2.9-9.4,8.7-9.4c5.3,0,7.5,3.3,7.8,6.3
				h-3.3c-0.4-2.1-1.6-3.9-4.6-3.9c-3.6,0-5.2,2.9-5.2,6.9c0,4.7,1.8,7.1,5.2,7.1c2.8,0,4-1.6,4.7-3.7H571.2z"/>
			<path class="st0" d="M574.4,719h3.2v-5.3h3.2v5.3h4v2.4h-4v11.4c0,1.5,0.4,2.2,2.1,2.2c0.5,0,1.1,0,1.5-0.1v2.2
				c-0.8,0.3-1.9,0.3-2.6,0.3c-2.9,0-4.3-1-4.3-4v-11.9h-3.2V719z"/>
		</g>
	</g>
	<g>
		<path class="st0" d="M42,678.7v-40.8h2.7c4,13.2,9.3,22.5,16,27.8c6.7,5.3,15,8,25.1,8c15.5,0,23.3-4.9,23.3-14.8
			c0-4.2-1.9-7.5-5.7-9.6c-5.9-3.3-13.5-5.9-22.8-7.8c-10.3-2.7-19-6.4-26-10.9c-8.4-5.5-12.5-14.1-12.5-26c0-11.9,3.6-21.3,11-28.4
			s17-10.6,29.2-10.6c7.5,0,15.1,1.8,23,5.2c2.9,1.2,5.1,1.8,6.6,1.8c1.5,0,2.8-0.5,3.9-1.6c1.1-1.1,2.4-3,3.9-5.9h2.5V600h-2.7
			c-7.8-19.8-19.8-29.7-36-29.7c-7.1,0-12.5,1.2-16,3.8s-5.2,5.7-5.2,9.5c0,2.3,0.5,4.1,1.6,5.4c1.1,1.3,1.9,2.2,2.5,2.8
			c0.6,0.6,1.6,1.2,3,1.9c1.4,0.7,2.5,1.2,3.4,1.6s2.3,0.9,4.2,1.5c1.9,0.6,3.3,1,4.2,1.1c10.3,2.6,17.8,4.8,22.4,6.7
			c4.6,1.9,8.9,4.2,13,7c8.4,5.8,12.5,15.1,12.5,27.9c0,12.8-3.8,22.6-11.4,29.2c-7.6,6.6-18,9.9-31.2,9.9c-9.4,0-18.6-2.2-27.4-6.6
			c-1.8-1.2-3.3-1.8-4.3-1.8c-3.4,0-6.6,2.8-9.8,8.4L42,678.7L42,678.7z"/>
		<path class="st0" d="M134.9,567.8h55.9v104.5h12.8v4.1h-67.8v-4.1h12.5V571.9h-13.5V567.8z M169.3,552.1c-8.1,0-13.8-2-17.2-6.2
			c-3.4-4.1-5.1-9.2-5.1-15.3s1.9-11.1,5.6-15.1c3.7-3.9,9.4-5.9,17-5.9c7.6,0,13.4,1.8,17.3,5.4c4,3.6,5.9,8.7,5.9,15.3
			c0,6.6-1.9,11.9-5.7,15.8C183.3,550.1,177.4,552.1,169.3,552.1z"/>
		<path class="st0" d="M267.7,622c4.3-2.8,8.5-3.6,10.7-3.9c13-0.2,26.1-0.4,39.1-0.6c1.4-34.7-15.2-52-49.7-52
			c-17,0-31.1,4.8-42.1,14.4s-16.5,23.4-16.5,41.4c0,18,4.9,32.1,14.7,42.2c9.8,10.1,24.5,15.2,44.1,15.2c15,0,26.3-3,33.9-9.1
			c7.5-6.1,12.7-14.6,15.6-25.6l-4.1-0.7c-5.5,18.9-17,28.3-34.7,28.3c-9.4,0-16-3.8-19.8-11.4c-0.8-1.5-1.4-3-1.9-4.4
			c0,0-0.1-0.3-0.2-0.6c-0.1-0.2-1.4-4.2-1.4-9c0.1-7.6,3.6-14,3.9-14.6C260.8,629.1,263,625.2,267.7,622z M253.3,617.8
			c-1.2,0.7-2.2,1.3-3.2,1.9c1-1.3,2.3-3.3,3.2-5.5c1.1-2.7,0.5-3.3,1.4-6.8c0.8-3.2,1.9-5.6,2.8-7.2c-0.8,0.8-2,2.2-3,4.1
			c-0.4,0.7-0.7,1.3-1,1.9c-1,2.3-1.4,4.2-1.5,4.7c-0.2,1-1.8,6.5-8.6,13.4c-0.9,0.9-2,2-3.6,3.2c-0.1,0.1-0.2,0.2-0.3,0.3
			c-2.6,2.1-4.7,4-6.4,5.5c6.9-9.4,8.9-15.5,9.5-19.4c0.2-1.2,0.6-5.1,2.5-9.7c0.7-1.7,1.1-2.3,2.7-5.4c4.3-8.2,3.8-8.4,5.4-10.9
			c1.1-1.7,4.3-6.5,10.1-8.9c3.5-1.4,10.5-3,13.6,0.5c0.9,1,1.2,2.2,1.4,3c1,0.9,2.2,2.2,3.2,4c0.5,0.9,1.3,2.3,1.9,4.3
			c0.1,0.3,0.2,0.5,0.2,0.6c0.1,0.3,0.2,0.5,0.3,0.7c0.6,1.3,1,2.1,1,2.1c0.3,0.5,0.8,1.5,1,2.2c0,0.1,0,0.2,0,0.4
			c0,0.3-0.2,0.4-0.6,0.9c-0.1,0.1-0.2,0.2-0.3,0.4c-0.1,0.2-0.2,0.3-0.2,0.4c0,0.1,0,0.2,0,0.4v0.1c0,0.1,0,0.2,0,0.2
			c0.2,1-0.2,2.6-0.2,2.6c-0.5,2.4-0.8,3.6-1.5,4.7c-0.2,0.4-1,1.5-2.1,2.3c-3.3,2.4-8.2,0.7-9.3,0.3c-3.1-1.1-5-3-5.9-4.1
			c0.3,1.3,1,3.1,2.3,4.8c0.4,0.6,0.8,1,1.3,1.5c-2.4,0.6-5.3,1.5-8.6,2.8C259.5,614.6,256.7,615.8,253.3,617.8z"/>
		<path class="st0" d="M326.2,567.8h55v21c2.4-7,6.2-12.6,11.2-16.9c5-4.3,12.6-6.4,22.8-6.4c23.6,0,35.4,12.7,35.4,38.1v68.7h12.8
			v4.1h-64.5v-4.1h9.3v-74.1c0-9.1-0.6-15-1.8-17.7c-1.2-2.7-3.4-4-6.6-4c-4.9,0-9.2,3.2-12.9,9.6c-3.7,6.4-5.6,14.1-5.6,23.3v63
			h9.8v4.1h-64.8v-4.1h12.5V571.9h-12.5L326.2,567.8L326.2,567.8z"/>
		<path class="st0" d="M466.8,567.8h55v21c2.4-7,6.2-12.6,11.2-16.9c5-4.3,12.6-6.4,22.8-6.4c23.6,0,35.4,12.7,35.4,38.1v68.7h12.8
			v4.1h-64.5v-4.1h9.3v-74.1c0-9.1-0.6-15-1.8-17.7c-1.2-2.7-3.4-4-6.6-4c-4.9,0-9.2,3.2-12.9,9.6c-3.7,6.4-5.6,14.1-5.6,23.3v63
			h9.8v4.1h-64.8v-4.1h12.5V571.9h-12.5L466.8,567.8L466.8,567.8z"/>
		<path class="st0" d="M622.7,663.5c-9.8-10.1-14.7-24.2-14.7-42.2c0-18,5.5-31.8,16.5-41.4c11-9.6,25-14.4,42.1-14.4
			c34.5,0,51.1,17.3,49.7,52H652v8.9c0,14.9,1.9,26.2,5.7,33.8c3.8,7.6,10.4,11.4,19.8,11.4c17.6,0,29.2-9.4,34.7-28.3l4.1,0.7
			c-2.9,10.9-8.1,19.5-15.6,25.5c-7.5,6.1-18.8,9.1-33.9,9.1C647.2,678.7,632.5,673.6,622.7,663.5z M652.2,613h23.5v-11.2
			c0-12.3-0.7-20.7-2.2-25.2c-1.5-4.5-4.3-6.7-8.7-6.7s-7.5,2.4-9.6,7.2c-2,4.8-3.1,13-3.1,24.8V613z"/>
	</g>
	<path class="st1" d="M285.9,596.8c0,0.3-0.2,0.4-0.6,0.9c-0.1,0.1-0.2,0.2-0.3,0.4c-0.1,0.2-0.2,0.3-0.2,0.4c0,0.1,0,0.2,0,0.4v0.1
		c0,0.1,0,0.2,0,0.2c0.2,1-0.2,2.6-0.2,2.6c-0.5,2.4-0.8,3.6-1.5,4.7c-0.2,0.4-1,1.5-2.1,2.3c-3.3,2.4-8.2,0.7-9.3,0.3
		c-3.1-1.1-5-3-5.9-4.1c0.3,1.3,1,3.1,2.3,4.8c0.4,0.6,0.8,1,1.3,1.5c-2.4,0.6-5.3,1.5-8.6,2.8c-1.3,0.5-4.1,1.7-7.5,3.6
		c-1.2,0.7-2.2,1.3-3.2,1.9c1-1.3,2.3-3.3,3.2-5.5c1.1-2.7,0.5-3.3,1.4-6.8c0.8-3.2,1.9-5.6,2.8-7.2c-0.8,0.8-2,2.2-3,4.1
		c-0.4,0.7-0.7,1.3-1,1.9c-1,2.3-1.4,4.2-1.5,4.7c-0.2,1-1.8,6.5-8.6,13.4c-0.9,0.9-2,2-3.6,3.2c-0.1,0.1-0.2,0.2-0.3,0.3
		c-2.6,2.1-4.7,4-6.4,5.5c6.9-9.4,8.9-15.5,9.5-19.4c0.2-1.2,0.6-5.1,2.5-9.7c0.7-1.7,1.1-2.3,2.7-5.4c4.3-8.2,3.8-8.4,5.4-10.9
		c1.1-1.7,4.3-6.5,10.1-8.9c3.5-1.4,10.5-3,13.6,0.5c0.9,1,1.2,2.2,1.4,3c1,0.9,2.2,2.2,3.2,4c0.5,0.9,1.3,2.3,1.9,4.3
		c0.1,0.3,0.2,0.5,0.2,0.6c0.1,0.3,0.2,0.5,0.3,0.7c0.6,1.3,1,2.1,1,2.1c0.3,0.5,0.8,1.5,1,2.2C285.9,596.5,285.9,596.6,285.9,596.8
		z"/>
</g>
<g id="Layer_2_1_">
	<path class="st0" d="M432.8,101.2c-0.1,0.8-0.6,1.2-1.9,2.7c-0.2,0.3-0.6,0.7-1,1.3c-0.4,0.5-0.5,0.8-0.6,1.2
		c-0.1,0.4-0.1,0.8-0.1,1.1c0,0.1,0,0.2,0,0.4c0,0.4,0.1,0.7,0.1,0.7c0.5,3-0.5,7.8-0.5,7.8c-1.6,7.3-2.4,10.9-4.4,14.3
		c-0.8,1.2-2.9,4.6-6.4,7.1c-10.1,7.4-24.8,2.1-28.2,0.9c-9.3-3.2-15.2-9.1-17.9-12.4c1,4,3,9.4,7,14.7c1.3,1.7,2.6,3.1,3.9,4.4
		c-7.4,1.9-16.2,4.5-26,8.5c-3.9,1.6-12.4,5.2-22.8,11.1c-3.5,2-6.7,3.9-9.8,5.9c2.9-3.9,6.9-10,9.6-16.8c3.2-8.3,1.6-10.1,4.1-20.7
		c2.3-9.6,5.9-17.1,8.6-22.1c-2.4,2.6-6,6.7-9.2,12.4c-1.2,2.1-2.1,4-2.9,5.8c-3,7-4.3,12.7-4.6,14.3c-0.7,3-5.3,19.8-26.1,40.7
		c-2.6,2.6-6.2,6-10.8,9.8c-0.3,0.3-0.7,0.6-1,0.8c-7.9,6.4-14.4,12.1-19.4,16.6c20.8-28.6,27.1-47.1,28.9-58.9
		c0.6-3.8,1.9-15.3,7.7-29.4c2.1-5.2,3.4-7,8.1-16.3c13-25,11.4-25.5,16.4-33.1c3.4-5.2,13-19.7,30.8-26.9
		c10.7-4.4,31.9-9.1,41.3,1.5c2.7,3,3.8,6.6,4.2,9.1c2.9,2.7,6.5,6.8,9.8,12.3c1.6,2.6,4,7.1,5.8,12.9c0.3,1,0.5,1.5,0.6,1.9
		c0.4,0.9,0.7,1.7,0.9,2.1c1.8,4,3.1,6.4,3.1,6.4c0.9,1.5,2.5,4.4,2.9,6.7C432.9,100.4,432.9,100.8,432.8,101.2z"/>
	<path class="st0" d="M322.8,186.3c15.6-11.5,34.4-20.5,34.4-20.5c14.9-7.1,23.9-9.3,28.6-10.2c11.6-2.3,22.4-4.5,33.5,0.3
		c2.5,1.1,5.3,2.8,19.3,16.7c14,13.9,20.9,20.8,22.3,24.8c5.8,16.5-11.4,28.5-17.5,51.3c-6.2,23.1,1.1,44.3,13.5,67.3
		c36.1,66.8,130.3,154.3,143.3,166.3c-8.9,8.9-17.9,17.9-26.8,26.8c-113.4,0-226.7,0-340.1,0c-9.1-9-18.3-18.1-27.4-27.1
		c17.3-9.1,39.5-22.1,63.8-40.2c40.2-29.9,65.7-58.5,72.7-66.5c16.7-19.2,37.2-46.1,56-81.2c-5-6.5-10-13.1-15-19.6
		c-1.3,5.8-3.1,12.1-5.7,18.8c-5.4,14-12.2,25-18.3,33.2c-48.1,22.3-96.1,44.7-144.2,67c20.4-35.2,40.7-70.3,61-105.5
		c-12.5,13.5-25.1,26.9-37.6,40.4c-26.9,3.4-53.8,6.9-80.7,10.3C239.3,258.3,302,201.7,322.8,186.3z"/>
</g>
</svg>
