<?xml version="1.0" encoding="utf-8"?>
<!-- Generator: Adobe Illustrator 25.0.0, SVG Export Plug-In . SVG Version: 6.00 Build 0)  -->
<svg version="1.1" id="Layer_1" xmlns="http://www.w3.org/2000/svg" xmlns:xlink="http://www.w3.org/1999/xlink" x="0px" y="0px"
	 viewBox="0 0 500 500" style="enable-background:new 0 0 500 500;" xml:space="preserve">
<style type="text/css">
	.st0{fill:#FD7A60;}
	.st1{fill:none;}
</style>
<path class="st0" d="M249.5,10.1C116.4,10.1,8.4,118,8.4,251.2s107.9,241.1,241.1,241.1s241.1-107.9,241.1-241.1
	S382.7,10.1,249.5,10.1z M357.9,379c-14.2,4.9-28.3,5.7-41.4,4.1c-25.5-3.1-46.8-15.5-55.7-23.5c-16.6-15-21.2-31.4-21.9-34.3
	c0-0.1,0-0.1,0-0.1c0-0.1,0-0.1,0-0.2c0-0.1,0-0.1,0-0.1c0-0.2-0.1-0.3-0.1-0.5c-0.1-0.3-0.1-0.6-0.1-0.8c0-0.1,0-0.2-0.1-0.3
	c7.2,8.4,22.5,23.8,46.8,32.2c8.9,3.1,47.1,16.8,73.6-2.5c9.2-6.7,14.7-15.3,16.7-18.6c5.4-8.7,7.4-18.2,11.6-37.2
	c0,0,2.8-12.5,1.3-20.3c0-0.1-0.1-0.8-0.2-1.9c0-0.3,0-0.6,0-0.9c-0.1-1,0-1.9,0.3-3c0.3-1.1,0.7-1.8,1.7-3.1c1.1-1.6,2-2.7,2.7-3.4
	c2-2.1,4.2-4.6,5-7.1c0.9-2.8-0.6-6-3.5-12.3c-1.7-3.5-3.2-6.2-4.3-8c0,0-3.5-6.3-8.1-16.7c-0.5-1.1-1.3-3-2.2-5.5
	c-0.4-1-0.8-2.3-1.6-4.9c-4.7-15.3-10.9-26.9-15-33.8c-8.6-14.3-18-24.8-25.6-32c-1.4-7.5-4.3-16.3-11-23.8
	c-0.3-0.4-0.7-0.8-1.1-1.1c-0.3-0.4-0.7-0.7-1.1-1.1c-0.4-0.4-0.8-0.7-1.1-1.1c-0.3-0.3-0.7-0.6-1.1-0.9c-0.4-0.3-0.8-0.6-1.1-0.9
	c-33.5-26.7-110.5-12.5-157.9,25.6c-65.1,52.4-60.9,139-60.2,148.6c4.2,64.3,43,129.1,107.7,157.8c70.5,31.2,145.6,8,195.4-31.8
	c-0.8,0.8-1.6,1.5-2.4,2.2c-0.7,0.7-1.4,1.3-2.2,2c-0.9,0.9-1.9,1.7-2.8,2.5c-0.6,0.5-1.3,1.1-1.9,1.7c-0.2,0.2-0.4,0.4-0.6,0.5
	c-0.8,0.7-1.5,1.3-2.3,1.9c-0.6,0.5-1.2,1-1.8,1.5c-0.5,0.4-1,0.8-1.5,1.2c-0.6,0.5-1.3,1-1.9,1.5c-0.7,0.6-1.5,1.1-2.2,1.7
	c-3.7,2.8-7.4,5.5-11.3,8.1c-0.8,0.5-1.6,1-2.4,1.5c-0.9,0.6-1.8,1.2-2.8,1.8c-0.7,0.4-1.4,0.9-2.1,1.3c-0.5,0.3-0.9,0.6-1.4,0.8
	c-0.7,0.4-1.4,0.9-2.1,1.3c-0.9,0.6-1.9,1.1-2.8,1.6c0,0,0,0,0,0c-1,0.5-1.9,1.1-2.9,1.6c-1,0.5-1.9,1.1-2.9,1.6
	c-1,0.5-1.9,1-2.9,1.5c-1,0.5-2,1-2.9,1.5c-2.1,1-4.2,2.1-6.4,3c-0.9,0.4-1.7,0.8-2.6,1.2c-1,0.5-2,0.9-3,1.3c-1,0.4-2,0.8-3.1,1.3
	c-0.9,0.4-1.8,0.7-2.7,1.1c-2.2,0.8-4.4,1.7-6.6,2.5c-0.8,0.3-1.5,0.5-2.3,0.8c-2.4,0.8-4.8,1.6-7.2,2.3c-0.1,0-0.2,0-0.2,0.1
	c-0.8,0.2-1.6,0.5-2.4,0.7c-0.9,0.3-1.8,0.5-2.7,0.8c-0.8,0.2-1.5,0.4-2.3,0.6c-1.1,0.3-2.3,0.6-3.4,0.9c-0.7,0.2-1.4,0.3-2,0.5
	c-0.7,0.2-1.4,0.3-2.2,0.5c-2.9,0.7-5.7,1.3-8.4,1.8c-0.6,0.1-1.2,0.2-1.8,0.3c-1.6,0.3-3.1,0.6-4.7,0.8c-0.6,0.1-1.3,0.2-1.9,0.3
	c-1.8,0.3-3.5,0.5-5.2,0.7c-1.3,0.2-2.6,0.3-3.9,0.5c-0.7,0.1-1.4,0.1-2.1,0.2c-0.6,0.1-1.1,0.1-1.6,0.2c-0.1,0-0.3,0-0.4,0
	c-1.6,0.2-3.1,0.3-4.6,0.4c-1.1,0.1-2.1,0.1-3.1,0.2c-0.9,0-1.7,0.1-2.6,0.1c-0.8,0-1.7,0.1-2.5,0.1c-0.1,0-0.2,0-0.3,0
	c-0.9,0-1.7,0.1-2.6,0.1c-2.1,0.1-4.1,0.1-5.9,0.1c-1,0-1.9,0-2.9,0c-0.7,0-1.4,0-2.1,0c-0.8,0-1.7,0-2.5-0.1
	c-0.8,0-1.7-0.1-2.5-0.1c-0.8,0-1.6-0.1-2.4-0.1c-11.3-0.6-22.3-2-33.1-4.2c-8.4-1.7-15.8-3.6-21.7-5.5c-0.1,0-0.2-0.1-0.3-0.1
	c0,0-0.1,0-0.1,0c-50.2-16.7-85.7-65.8-89.1-70.6c-34.5-48.8-44.7-109.5-35-163.2c1.9-10.5,4.5-20.7,7.9-30.5
	c14-40.8,37.8-66.6,44.1-73.2c28.8-30.2,59.8-43,71.6-47.4c13.5-5,41.3-13.6,75.2-11.7c26,1.4,48.8,8.7,67.8,18
	c24.1,11,45.9,27,63.3,47.5c0.1,0.1,0.1,0.1,0.2,0.2c0,0,0,0,0,0c0,0,0.1,0.1,0.1,0.1c0,0,0,0,0,0c0,0,0,0,0.1,0.1
	c0,0,0,0.1,0.1,0.1c0.2,0.3,0.6,0.7,1.1,1.3c0.2,0.2,0.3,0.4,0.5,0.6c0,0,0.2,0.2,0.4,0.5c0,0,0.1,0.1,0.1,0.2
	c0,0.1,0.1,0.1,0.1,0.2c0.1,0.1,0.2,0.3,0.3,0.4c3.6,4.7,16.3,22,24.4,41.2c0.3,0.7,0.6,1.4,0.9,2.2c17.5,43.5,13.3,82.7,13.3,82.7
	C428.4,276.4,419.6,357.6,357.9,379z"/>
<path class="st1" d="M387.4,297.3c0,0,2.8-12.5,1.3-20.3c0-0.1-0.1-0.8-0.2-1.9c0-0.3,0-0.6,0-0.9c-0.1-1,0-1.9,0.3-3
	c0.3-1.1,0.7-1.8,1.7-3.1c1.1-1.6,2-2.7,2.7-3.4c2-2.1,4.2-4.6,5-7.1c0.9-2.8-0.6-6-3.5-12.3c-1.7-3.5-3.2-6.2-4.3-8
	c0,0-3.5-6.3-8.1-16.7c-0.5-1.1-1.3-3-2.2-5.5c-0.4-1-0.8-2.3-1.6-4.9c-4.7-15.3-10.9-26.9-15-33.8c-8.6-14.3-18-24.8-25.6-32
	c-1.4-7.5-4.3-16.3-11-23.8c-0.3-0.4-0.7-0.8-1.1-1.1c-0.3-0.4-0.7-0.7-1.1-1.1c-0.4-0.4-0.8-0.7-1.1-1.1c-0.3-0.3-0.7-0.6-1.1-0.9
	c-0.4-0.3-0.8-0.6-1.1-0.9c-33.5-26.7-110.5-12.5-157.9,25.6c-65.1,52.4-60.9,139-60.2,148.6c4.2,64.3,43,129.1,107.7,157.8
	c70.5,31.2,145.6,8,195.4-31.8c-0.8,0.8-1.6,1.5-2.4,2.2c-0.7,0.7-1.4,1.3-2.2,2c-0.9,0.9-1.9,1.7-2.8,2.5c-0.6,0.5-1.3,1.1-1.9,1.7
	c-0.2,0.2-0.4,0.4-0.6,0.5c-0.8,0.7-1.5,1.3-2.3,1.9c-0.6,0.5-1.2,1-1.8,1.5c-0.5,0.4-1,0.8-1.5,1.2c-0.6,0.5-1.3,1-1.9,1.5
	c-0.7,0.6-1.5,1.1-2.2,1.7c-3.7,2.8-7.4,5.5-11.3,8.1c-0.8,0.5-1.6,1-2.4,1.5c-0.9,0.6-1.8,1.2-2.8,1.8c-0.7,0.4-1.4,0.9-2.1,1.3
	c-0.5,0.3-0.9,0.6-1.4,0.8c-0.7,0.4-1.4,0.9-2.1,1.3c-0.9,0.5-1.9,1.1-2.8,1.6c0,0,0,0,0,0c-1,0.5-1.9,1.1-2.9,1.6
	c-1,0.5-1.9,1-2.9,1.6c-1,0.5-1.9,1-2.9,1.5c-1,0.5-2,1-2.9,1.5c-2.1,1-4.2,2.1-6.4,3c-0.9,0.4-1.7,0.8-2.6,1.2c-1,0.5-2,0.9-3,1.3
	c-1,0.4-2,0.8-3.1,1.3c-0.9,0.4-1.8,0.7-2.7,1.1c-2.2,0.8-4.4,1.7-6.6,2.5c-0.8,0.3-1.5,0.5-2.3,0.8c-2.4,0.8-4.8,1.6-7.2,2.3
	c-0.1,0-0.2,0-0.2,0.1c-0.8,0.2-1.6,0.5-2.4,0.7c-0.9,0.3-1.8,0.5-2.7,0.8c-0.8,0.2-1.5,0.4-2.3,0.6c-1.1,0.3-2.3,0.6-3.4,0.9
	c-0.7,0.2-1.4,0.3-2,0.5c-0.7,0.2-1.4,0.3-2.2,0.5c-2.9,0.7-5.7,1.3-8.4,1.8c-0.6,0.1-1.2,0.2-1.8,0.3c-1.6,0.3-3.1,0.6-4.7,0.8
	c-0.6,0.1-1.3,0.2-1.9,0.3c-1.8,0.3-3.5,0.5-5.2,0.7c-1.3,0.2-2.6,0.3-3.9,0.5c-0.7,0.1-1.4,0.1-2.1,0.2c-0.6,0.1-1.1,0.1-1.6,0.2
	c-0.1,0-0.3,0-0.4,0c-1.6,0.2-3.1,0.3-4.6,0.4c-1.1,0.1-2.1,0.1-3.1,0.2c-0.9,0-1.7,0.1-2.6,0.1c-0.8,0-1.7,0.1-2.5,0.1
	c-0.1,0-0.2,0-0.3,0c-0.9,0-1.7,0.1-2.6,0.1c-2.1,0.1-4.1,0.1-5.9,0.1c-1,0-1.9,0-2.9,0c-0.7,0-1.4,0-2.1,0c-0.8,0-1.7,0-2.5-0.1
	c-0.8,0-1.7-0.1-2.5-0.1c-0.8,0-1.6-0.1-2.4-0.1c-11.3-0.6-22.3-2-33.1-4.2c-8.4-1.7-15.8-3.6-21.7-5.5c-0.1,0-0.2-0.1-0.3-0.1
	c0,0-0.1,0-0.1,0c-50.2-16.7-85.7-65.8-89.1-70.6c-34.5-48.8-44.7-109.5-35-163.2c1.9-10.5,4.5-20.7,7.9-30.5
	c14-40.8,37.8-66.6,44.1-73.2c28.8-30.2,59.8-43,71.6-47.4c13.5-5,41.3-13.6,75.2-11.7c26,1.4,48.8,8.7,67.8,18
	c24.1,11,45.9,27,63.3,47.5c0.1,0.1,0.1,0.1,0.2,0.2c0,0,0,0,0,0c0,0,0.1,0.1,0.1,0.1c0,0,0,0,0,0c0,0,0,0,0.1,0.1
	c0,0,0,0.1,0.1,0.1c0.2,0.3,0.6,0.7,1.1,1.3c0.2,0.2,0.3,0.4,0.5,0.6c0,0,0.2,0.2,0.4,0.5c0,0,0.1,0.1,0.1,0.2
	c0,0.1,0.1,0.1,0.1,0.2c0.1,0.1,0.2,0.3,0.3,0.4c3.6,4.7,16.3,22,24.4,41.2c0.3,0.7,0.6,1.4,0.9,2.2c17.5,43.5,13.3,82.7,13.3,82.7
	c-1,9.7-9.8,90.9-71.5,112.3c-14.2,4.9-28.3,5.7-41.4,4.1c-25.5-3.1-46.8-15.5-55.7-23.5c-16.6-15-21.2-31.4-21.9-34.3
	c0-0.1,0-0.1,0-0.1c0-0.1,0-0.1,0-0.2c0-0.1,0-0.1,0-0.1c0-0.2-0.1-0.3-0.1-0.5c-0.1-0.3-0.1-0.6-0.1-0.8c0-0.1,0-0.2-0.1-0.3
	c7.2,8.4,22.5,23.8,46.8,32.2c8.9,3.1,47.1,16.8,73.6-2.5c9.2-6.7,14.7-15.3,16.7-18.6C381.2,325.9,383.3,316.3,387.4,297.3z"/>
</svg>
