<?xml version="1.0" encoding="utf-8"?>
<!-- Generator: Adobe Illustrator 25.0.0, SVG Export Plug-In . SVG Version: 6.00 Build 0)  -->
<svg version="1.1" id="Layer_2" xmlns="http://www.w3.org/2000/svg" xmlns:xlink="http://www.w3.org/1999/xlink" x="0px" y="0px"
	 viewBox="0 0 500 500" style="enable-background:new 0 0 500 500;" xml:space="preserve">
<style type="text/css">
	.st0{fill:#FD7A60;}
	.st1{fill:none;}
</style>
<path class="st0" d="M306.65,66.22c-0.15,0.84-0.61,1.27-2.02,2.87c-0.25,0.27-0.62,0.72-1.07,1.36c-0.37,0.53-0.54,0.82-0.66,1.25
	c-0.12,0.43-0.15,0.81-0.12,1.21c0.01,0.13,0.01,0.26,0.02,0.37c0.04,0.43,0.1,0.73,0.1,0.76c0.56,3.16-0.54,8.21-0.54,8.21
	c-1.68,7.69-2.52,11.54-4.69,15.03c-0.81,1.3-3.05,4.8-6.75,7.49c-10.69,7.77-26.12,2.25-29.71,1c-9.82-3.4-15.99-9.61-18.9-13.01
	c1.09,4.19,3.18,9.85,7.41,15.45c1.35,1.78,2.73,3.32,4.07,4.64c-7.76,1.96-17.11,4.78-27.42,8.97c-4.1,1.68-13.09,5.49-24.02,11.65
	c-3.72,2.1-7.08,4.14-10.28,6.22c3.09-4.12,7.31-10.49,10.11-17.73c3.38-8.74,1.65-10.65,4.33-21.76
	c2.44-10.15,6.16-18.05,9.01-23.23c-2.56,2.72-6.29,7.08-9.72,13.07c-1.26,2.19-2.24,4.19-3.05,6.07
	c-3.15,7.39-4.48,13.39-4.85,15.02c-0.7,3.13-5.58,20.87-27.46,42.83c-2.76,2.76-6.56,6.36-11.39,10.36
	c-0.35,0.29-0.7,0.58-1.07,0.88c-8.3,6.74-15.15,12.75-20.39,17.52c21.95-30.1,28.58-49.61,30.4-62.09
	c0.58-3.96,1.98-16.16,8.1-31.01c2.24-5.44,3.53-7.41,8.59-17.15c13.7-26.31,12.01-26.9,17.25-34.83
	c3.62-5.5,13.66-20.71,32.42-28.34c11.32-4.6,33.58-9.58,43.5,1.59c2.84,3.19,3.96,6.93,4.45,9.61c3.04,2.89,6.87,7.14,10.33,12.92
	c1.68,2.79,4.18,7.48,6.06,13.63c0.33,1.05,0.49,1.56,0.65,1.98c0.38,1,0.7,1.78,0.89,2.22c1.87,4.22,3.27,6.76,3.27,6.76
	c0.9,1.62,2.68,4.63,3.11,7.04C306.69,65.38,306.73,65.76,306.65,66.22z"/>
<path class="st0" d="M190.77,155.83c16.42-12.13,36.24-21.57,36.24-21.57c15.73-7.5,25.19-9.78,30.16-10.78
	c12.18-2.46,23.58-4.76,35.28,0.3c2.66,1.15,5.56,2.97,20.29,17.61c14.71,14.61,22.07,21.92,23.54,26.13
	c6.1,17.38-12.05,30.03-18.47,54.01c-6.52,24.37,1.14,46.65,14.22,70.89C370.02,362.84,469.31,455,482.98,467.59
	c-9.43,9.43-18.86,18.86-28.28,28.28c-119.41,0-238.82,0-358.23,0c-9.64-9.51-19.28-19.02-28.92-28.53
	c18.21-9.58,41.65-23.3,67.2-42.3c42.4-31.52,69.16-61.61,76.55-70.08c17.6-20.19,39.19-48.55,58.96-85.53
	c-5.26-6.89-10.53-13.78-15.79-20.67c-1.39,6.06-3.32,12.74-6.03,19.81c-5.64,14.71-12.84,26.37-19.24,35.03
	c-50.63,23.54-101.25,47.09-151.88,70.63c21.44-37.04,42.87-74.07,64.31-111.11c-13.21,14.18-26.41,28.35-39.62,42.53
	c-28.33,3.62-56.66,7.25-84.99,10.87C102.82,231.7,168.86,172.01,190.77,155.83z"/>
<path class="st1" d="M215.52,76.98c-2.85,5.18-6.57,13.08-9.01,23.23c-2.68,11.11-0.94,13.02-4.33,21.76
	c-2.8,7.24-7.02,13.62-10.11,17.73c-1.55,2.07-2.82,3.56-3.5,4.32c-11.31,12.76-25.18,19.35-31.67,22.06
	c0.37-0.29,0.73-0.58,1.08-0.88c0.37-0.29,0.72-0.58,1.07-0.88c4.84-3.99,8.64-7.6,11.39-10.36c21.88-21.96,26.76-39.71,27.46-42.83
	c0.37-1.63,1.7-7.64,4.85-15.02c0.81-1.88,1.79-3.88,3.05-6.07C209.24,84.07,212.96,79.7,215.52,76.98z"/>
</svg>
