<?xml version="1.0" encoding="utf-8"?>
<!-- Generator: Adobe Illustrator 25.0.0, SVG Export Plug-In . SVG Version: 6.00 Build 0)  -->
<svg version="1.1" id="Layer_1" xmlns="http://www.w3.org/2000/svg" xmlns:xlink="http://www.w3.org/1999/xlink" x="0px" y="0px"
	 viewBox="0 0 1116.7 417.4" style="enable-background:new 0 0 1116.7 417.4;" xml:space="preserve">
<style type="text/css">
	.st0{fill:#FD7A60;}
	.st1{fill:none;}
</style>
<g id="Layer_3">
	<path class="st0" d="M965.7,301.3c8.7-8,22-17.3,37.8-15.7c12.3,1.2,18.1,7.9,33.4,12.4c15.4,4.5,28.6,3.2,37.4,1.3
		c-14.6,10.9-26.4,12.7-34.6,12.1c-17.6-1.1-25.7-13.1-45.7-14.9C982.2,295.5,972.3,298.6,965.7,301.3z"/>
	<path class="st0" d="M401.4,301.3c8.7-8,22-17.3,37.8-15.7c12.3,1.2,18.1,7.9,33.4,12.4c15.4,4.5,28.6,3.2,37.4,1.3
		c-14.6,10.9-26.4,12.7-34.6,12.1c-17.6-1.1-25.7-13.1-45.7-14.9C417.8,295.5,407.9,298.6,401.4,301.3z"/>
	<g>
		<g>
			<path class="st0" d="M535.4,304.6c0.5,3.2,2.9,4.8,6.2,4.8c3.3,0,5.4-1.5,5.4-4.3c0-2.7-1.4-3.9-6.2-5.2
				c-5.7-1.6-7.9-3.3-7.9-6.8c0-3.9,3.3-6.5,8.3-6.5c5.9,0,8.4,3.1,8.6,6.6h-3.4c-0.4-2.5-2-4.1-5.4-4.1c-3.2,0-4.8,1.4-4.8,3.7
				c0,2.3,1.4,3.2,5.8,4.4c6.7,1.9,8.3,4.2,8.3,7.6c0,4.1-3.1,7.1-9.1,7.1c-5.6,0-9-2.8-9.4-7.3H535.4z"/>
			<path class="st0" d="M560.2,285.4V296c1-1.7,2.9-3,6-3c2.9,0,6.3,1.4,6.3,6.5v12h-3.2V300c0-2.8-1.2-4.4-4.1-4.4
				c-3.2,0-4.9,1.9-4.9,5.6v10.4h-3.3v-26.1H560.2z"/>
			<path class="st0" d="M582.1,303c0,3.6,1.7,6.4,5.2,6.4c3.2,0,4.2-2.1,4.6-3h3.2c-0.7,2.3-2.6,5.5-8,5.5c-6.3,0-8.4-4.5-8.4-9.5
				c0-4.5,2.4-9.4,8.6-9.4c6.3,0,8.1,4.4,8.1,8.6c0,0.1,0,1.3,0,1.4H582.1z M592.2,300.8c-0.1-3.1-1.5-5.4-4.9-5.4
				c-4,0-4.9,3.3-5.1,5.4H592.2z"/>
			<path class="st0" d="M613.8,286.8h3.4v10.4h12.7v-10.4h3.4v24.7h-3.4v-11.7h-12.7v11.7h-3.4V286.8z"/>
			<path class="st0" d="M655.4,307.5c0,1.3,0.1,3.1,0.3,4h-3c-0.1-0.6-0.3-1.6-0.3-2.8c-0.8,1.8-2.8,3.1-6,3.1c-4.9,0-6.4-3-6.4-5.5
				c0-2.7,1.9-5.8,9.1-5.8c1.2,0,2.1,0,3.1,0v-1.8c0-1.7-0.5-3.5-3.9-3.5c-2.9,0-3.9,1.2-4.3,3.2h-3.2c0.3-3,2.2-5.5,7.5-5.5
				c4.2,0,7,1.5,7,5.7V307.5z M652.3,302.7c-0.8,0-1.9,0-3.2,0c-4.8,0-5.8,1.8-5.8,3.4c0,1.8,1.2,3.2,3.7,3.2c3.9,0,5.2-2.4,5.2-6.3
				V302.7z"/>
			<path class="st0" d="M664.6,306.3c0.4,2.1,2.1,3.3,4.5,3.3c2.8,0,3.9-1.3,3.9-2.9c0-1.6-1.3-2.5-4.7-3.3
				c-4.9-1.2-6.2-2.8-6.2-5.3c0-2.4,1.8-5.1,6.7-5.1c4.8,0,6.7,2.4,7,5.2h-3.2c-0.3-1.5-1.2-2.9-3.9-2.9c-2.3,0-3.3,1-3.3,2.5
				c0,1.4,0.8,2.1,4.1,2.9c5.1,1.2,6.7,2.8,6.7,5.7c0,3.4-2.9,5.4-7.2,5.4c-4.1,0-7.2-1.8-7.6-5.6H664.6z"/>
			<path class="st0" d="M714.5,311.5h-2.6c-0.1-0.7-0.3-1.8-0.3-3.6c-1.4,2.8-4.1,3.9-8,3.9c-7.1,0-10.6-5.5-10.6-12.6
				c0-7.2,4.1-12.8,11.7-12.8c5.8,0,9,2.8,9.8,7.2h-3.3c-0.8-2.7-2.7-4.6-6.6-4.6c-5.6,0-8.1,4.5-8.1,10.2c0,5.3,2.3,10,7.6,10
				c5.8,0,7-3.7,7-8.2v-0.2h-7.1v-2.7h10.4C714.5,301.9,714.5,311.2,714.5,311.5z"/>
			<path class="st0" d="M722.2,311.5v-26.1h3.3v26.1H722.2z"/>
			<path class="st0" d="M749.4,302.2c0,5.3-2.5,9.7-8.9,9.7c-6.2,0-8.7-4.6-8.7-9.6c0-4.8,2.9-9.2,8.9-9.2
				C746.4,293,749.4,296.9,749.4,302.2z M735.2,302.2c0,4.2,1.9,7.2,5.5,7.2c3.7,0,5.4-2.9,5.4-7.2c0-3.9-1.8-6.7-5.5-6.7
				C737,295.5,735.2,298.3,735.2,302.2z"/>
			<path class="st0" d="M755.7,285.4h3.3v10.4c0.9-1.5,2.7-2.9,6-2.9c4.9,0,7.7,3.6,7.7,8.9c0,5.5-2.6,10-8.3,10
				c-3.1,0-4.7-1.2-5.4-2.6c0,0.7-0.1,1.5-0.1,2.3h-3.2c0-1,0.1-2.9,0.1-5.1V285.4z M769.3,302c0-3.8-1.7-6.4-5.1-6.4
				c-4,0-5.4,2.3-5.4,6.6c0,4.4,1.1,7.1,5.3,7.1C767.7,309.3,769.3,306.3,769.3,302z"/>
			<path class="st0" d="M793,307.5c0,1.3,0.1,3.1,0.3,4h-3c-0.1-0.6-0.3-1.6-0.3-2.8c-0.8,1.8-2.8,3.1-6,3.1c-4.9,0-6.4-3-6.4-5.5
				c0-2.7,1.9-5.8,9.1-5.8c1.2,0,2.1,0,3.1,0v-1.8c0-1.7-0.5-3.5-3.9-3.5c-2.9,0-3.9,1.2-4.3,3.2h-3.2c0.3-3,2.2-5.5,7.5-5.5
				c4.2,0,7,1.5,7,5.7V307.5z M789.9,302.7c-0.8,0-1.9,0-3.2,0c-4.8,0-5.8,1.8-5.8,3.4c0,1.8,1.2,3.2,3.7,3.2c3.9,0,5.2-2.4,5.2-6.3
				V302.7z"/>
			<path class="st0" d="M800.8,311.5v-26.1h3.3v26.1H800.8z"/>
			<path class="st0" d="M827.2,286.8v24.7h-3.4v-24.7H827.2z"/>
			<path class="st0" d="M835.3,299c0-3.2,0-4.8-0.1-5.7h3.2c0.1,0.5,0.1,2,0.1,2.6c0.9-1.6,2.7-2.9,5.6-2.9c2.6,0,4.3,1.1,5.1,3.1
				c0.9-1.6,2.9-3.1,5.9-3.1c3,0,6,1.4,6,6.2v12.3H858v-11.8c0-2.2-0.8-4.1-3.7-4.1c-3.1,0-4.4,2.4-4.4,5.3v10.7h-3.2v-12
				c0-2.2-1-3.9-3.6-3.9c-2.8,0-4.5,2-4.5,5.6v10.4h-3.2V299z"/>
			<path class="st0" d="M872.2,309.4v9.4h-3.2v-20c0-2.5,0-4.2-0.1-5.4h3.2c0.1,0.6,0.1,1.9,0.1,2.9c1-1.9,2.9-3.3,6.2-3.3
				c4.3,0,7.5,3.1,7.5,9.1c0,6.1-3.6,9.7-8.3,9.7C874.7,311.8,873,310.8,872.2,309.4z M882.5,302.3c0-4.4-1.9-6.7-5.1-6.7
				c-4.1,0-5.3,2.6-5.3,6.9c0,4,0.8,6.8,5.1,6.8C880.5,309.3,882.5,306.8,882.5,302.3z"/>
			<path class="st0" d="M906.2,307.5c0,1.3,0.1,3.1,0.3,4h-3c-0.1-0.6-0.3-1.6-0.3-2.8c-0.8,1.8-2.8,3.1-6,3.1c-4.9,0-6.4-3-6.4-5.5
				c0-2.7,1.9-5.8,9.1-5.8c1.2,0,2.1,0,3.1,0v-1.8c0-1.7-0.5-3.5-3.9-3.5c-2.9,0-3.9,1.2-4.3,3.2h-3.2c0.3-3,2.2-5.5,7.5-5.5
				c4.2,0,7,1.5,7,5.7V307.5z M903.1,302.7c-0.8,0-1.9,0-3.2,0c-4.8,0-5.8,1.8-5.8,3.4c0,1.8,1.2,3.2,3.7,3.2c3.9,0,5.2-2.4,5.2-6.3
				V302.7z"/>
			<path class="st0" d="M929.1,305.7c-0.8,3.6-3.3,6.1-8,6.1c-5.6,0-8.5-3.4-8.5-9.5c0-5.2,2.9-9.4,8.7-9.4c5.3,0,7.5,3.3,7.8,6.3
				h-3.3c-0.4-2.1-1.6-3.9-4.6-3.9c-3.6,0-5.2,2.9-5.2,6.9c0,4.7,1.8,7.1,5.2,7.1c2.8,0,4-1.6,4.7-3.7H929.1z"/>
			<path class="st0" d="M932.3,293.4h3.2v-5.3h3.2v5.3h4v2.4h-4v11.4c0,1.5,0.4,2.2,2.1,2.2c0.5,0,1.1,0,1.5-0.1v2.2
				c-0.8,0.3-1.9,0.3-2.6,0.3c-2.9,0-4.3-1-4.3-4v-11.9h-3.2V293.4z"/>
		</g>
	</g>
	<g>
		<path class="st0" d="M400,253v-40.8h2.7c4,13.2,9.3,22.5,16,27.8c6.7,5.3,15,8,25.1,8c15.5,0,23.3-4.9,23.3-14.8
			c0-4.2-1.9-7.4-5.7-9.6c-5.9-3.3-13.5-5.9-22.8-7.8c-10.3-2.7-19-6.4-26-10.9c-8.4-5.5-12.5-14.1-12.5-26s3.6-21.3,11-28.4
			s17-10.6,29.2-10.6c7.5,0,15.1,1.8,23,5.2c2.9,1.2,5.1,1.8,6.6,1.8c1.5,0,2.8-0.5,3.9-1.6c1.1-1.1,2.4-3,3.9-5.9h2.5v34.9h-2.7
			c-7.8-19.8-19.8-29.6-36-29.6c-7.1,0-12.5,1.2-16,3.8s-5.2,5.7-5.2,9.5c0,2.3,0.5,4.1,1.6,5.4c1.1,1.3,1.9,2.2,2.5,2.9
			c0.6,0.6,1.6,1.2,3,1.9c1.4,0.7,2.5,1.2,3.4,1.6s2.3,0.9,4.2,1.5c1.9,0.6,3.3,1,4.2,1.1c10.3,2.6,17.8,4.8,22.4,6.7s8.9,4.2,13,7
			c8.4,5.8,12.5,15.1,12.5,27.9s-3.8,22.6-11.4,29.2c-7.6,6.6-18,9.9-31.2,9.9c-9.4,0-18.6-2.2-27.4-6.6c-1.8-1.2-3.3-1.8-4.3-1.8
			c-3.4,0-6.6,2.8-9.8,8.4L400,253L400,253z"/>
		<path class="st0" d="M492.8,142.2h55.9v104.5h12.8v4.1h-67.8v-4.1h12.5V146.3h-13.5V142.2z M527.2,126.4c-8.1,0-13.8-2.1-17.2-6.2
			c-3.4-4.1-5.1-9.2-5.1-15.3s1.9-11.1,5.6-15.1c3.7-3.9,9.4-5.9,17-5.9s13.4,1.8,17.3,5.4c4,3.6,5.9,8.7,5.9,15.3
			c0,6.6-1.9,11.9-5.7,15.8C541.2,124.5,535.3,126.4,527.2,126.4z"/>
		<path class="st0" d="M625.7,196.4c4.3-2.8,8.5-3.6,10.7-3.9c13-0.2,26.1-0.4,39.1-0.6c1.4-34.7-15.2-52-49.7-52
			c-17,0-31.1,4.8-42.1,14.4c-11,9.6-16.5,23.4-16.5,41.4s4.9,32.1,14.7,42.2C591.7,248,606.4,253,626,253c15,0,26.3-3,33.9-9.1
			c7.5-6.1,12.7-14.6,15.6-25.6l-4.1-0.7c-5.5,18.9-17,28.3-34.7,28.3c-9.4,0-16-3.8-19.8-11.4c-0.8-1.5-1.4-3-1.9-4.4
			c0,0-0.1-0.3-0.2-0.6c-0.1-0.2-1.4-4.2-1.4-9c0.1-7.6,3.6-14,3.9-14.6C618.7,203.4,621,199.5,625.7,196.4z M611.2,192.1
			c-1.2,0.7-2.2,1.3-3.2,1.9c1-1.3,2.3-3.3,3.2-5.5c1.1-2.7,0.5-3.3,1.4-6.8c0.8-3.2,1.9-5.6,2.8-7.2c-0.8,0.9-2,2.2-3,4.1
			c-0.4,0.7-0.7,1.3-1,1.9c-1,2.3-1.4,4.2-1.5,4.7c-0.2,1-1.8,6.5-8.6,13.4c-0.9,0.9-2,2-3.6,3.2c-0.1,0.1-0.2,0.2-0.3,0.3
			c-2.6,2.1-4.7,4-6.4,5.5c6.9-9.4,8.9-15.5,9.5-19.4c0.2-1.2,0.6-5.1,2.5-9.7c0.7-1.7,1.1-2.3,2.7-5.4c4.3-8.2,3.8-8.4,5.4-10.9
			c1.1-1.7,4.3-6.5,10.1-8.9c3.5-1.4,10.5-3,13.6,0.5c0.9,1,1.2,2.2,1.4,3c1,0.9,2.2,2.2,3.2,4c0.5,0.9,1.3,2.3,1.9,4.3
			c0.1,0.3,0.2,0.5,0.2,0.6c0.1,0.3,0.2,0.6,0.3,0.7c0.6,1.3,1,2.1,1,2.1c0.3,0.5,0.8,1.4,1,2.2c0,0.1,0,0.2,0,0.4
			c0,0.3-0.2,0.4-0.6,0.9c-0.1,0.1-0.2,0.2-0.3,0.4c-0.1,0.2-0.2,0.3-0.2,0.4c0,0.1,0,0.2,0,0.4v0.1c0,0.1,0,0.2,0,0.2
			c0.2,1-0.2,2.6-0.2,2.6c-0.5,2.4-0.8,3.6-1.5,4.7c-0.2,0.4-1,1.5-2.1,2.3c-3.3,2.4-8.2,0.7-9.3,0.3c-3.1-1.1-5-3-5.9-4.1
			c0.3,1.3,1,3.1,2.3,4.8c0.4,0.6,0.8,1,1.3,1.4c-2.4,0.6-5.3,1.5-8.6,2.8C617.4,189,614.6,190.2,611.2,192.1z"/>
		<path class="st0" d="M684.2,142.2h55v21c2.4-7,6.2-12.6,11.2-16.9c5-4.3,12.6-6.4,22.8-6.4c23.6,0,35.4,12.7,35.4,38.1v68.7h12.8
			v4.1h-64.5v-4.1h9.3v-74.1c0-9.1-0.6-15-1.8-17.7c-1.2-2.7-3.4-4-6.6-4c-4.9,0-9.2,3.2-12.9,9.6c-3.7,6.4-5.6,14.1-5.6,23.3v63
			h9.8v4.1h-64.8v-4.1h12.5V146.3h-12.5L684.2,142.2L684.2,142.2z"/>
		<path class="st0" d="M824.7,142.2h55v21c2.4-7,6.2-12.6,11.2-16.9c5-4.3,12.6-6.4,22.8-6.4c23.6,0,35.4,12.7,35.4,38.1v68.7h12.8
			v4.1h-64.5v-4.1h9.3v-74.1c0-9.1-0.6-15-1.8-17.7c-1.2-2.7-3.4-4-6.6-4c-4.9,0-9.2,3.2-12.9,9.6c-3.7,6.4-5.6,14.1-5.6,23.3v63
			h9.8v4.1h-64.8v-4.1h12.5V146.3h-12.5L824.7,142.2L824.7,142.2z"/>
		<path class="st0" d="M980.6,237.9c-9.8-10.1-14.7-24.2-14.7-42.2s5.5-31.8,16.5-41.4c11-9.6,25-14.4,42.1-14.4
			c34.5,0,51.1,17.3,49.7,52h-64.3v8.9c0,14.9,1.9,26.2,5.7,33.8c3.8,7.6,10.4,11.4,19.8,11.4c17.6,0,29.2-9.4,34.7-28.3l4.1,0.7
			c-2.9,10.9-8.1,19.5-15.6,25.6c-7.5,6.1-18.8,9.1-33.9,9.1C1005.1,253,990.4,248,980.6,237.9z M1010.1,187.3h23.5v-11.2
			c0-12.3-0.7-20.7-2.2-25.2c-1.5-4.5-4.3-6.7-8.7-6.7c-4.3,0-7.5,2.4-9.6,7.2c-2,4.8-3.1,13-3.1,24.8V187.3z"/>
	</g>
	<path class="st1" d="M643.8,171.1c0,0.3-0.2,0.4-0.6,0.9c-0.1,0.1-0.2,0.2-0.3,0.4c-0.1,0.2-0.2,0.3-0.2,0.4c0,0.1,0,0.2,0,0.4v0.1
		c0,0.1,0,0.2,0,0.2c0.2,1-0.2,2.6-0.2,2.6c-0.5,2.4-0.8,3.6-1.5,4.7c-0.2,0.4-1,1.5-2.1,2.3c-3.3,2.4-8.2,0.7-9.3,0.3
		c-3.1-1.1-5-3-5.9-4.1c0.3,1.3,1,3.1,2.3,4.8c0.4,0.6,0.8,1,1.3,1.4c-2.4,0.6-5.3,1.5-8.6,2.8c-1.3,0.5-4.1,1.7-7.5,3.6
		c-1.2,0.7-2.2,1.3-3.2,1.9c1-1.3,2.3-3.3,3.2-5.5c1.1-2.7,0.5-3.3,1.4-6.8c0.8-3.2,1.9-5.6,2.8-7.2c-0.8,0.9-2,2.2-3,4.1
		c-0.4,0.7-0.7,1.3-1,1.9c-1,2.3-1.4,4.2-1.5,4.7c-0.2,1-1.8,6.5-8.6,13.4c-0.9,0.9-2,2-3.6,3.2c-0.1,0.1-0.2,0.2-0.3,0.3
		c-2.6,2.1-4.7,4-6.4,5.5c6.9-9.4,8.9-15.5,9.5-19.4c0.2-1.2,0.6-5.1,2.5-9.7c0.7-1.7,1.1-2.3,2.7-5.4c4.3-8.2,3.8-8.4,5.4-10.9
		c1.1-1.7,4.3-6.5,10.1-8.9c3.5-1.4,10.5-3,13.6,0.5c0.9,1,1.2,2.2,1.4,3c1,0.9,2.2,2.2,3.2,4c0.5,0.9,1.3,2.3,1.9,4.3
		c0.1,0.3,0.2,0.5,0.2,0.6c0.1,0.3,0.2,0.6,0.3,0.7c0.6,1.3,1,2.1,1,2.1c0.3,0.5,0.8,1.4,1,2.2C643.8,170.9,643.8,171,643.8,171.1z"
		/>
</g>
<g id="Layer_2_1_">
	<path class="st0" d="M238.3,84.2c-0.1,0.6-0.4,0.9-1.4,1.9c-0.2,0.2-0.4,0.5-0.7,0.9c-0.3,0.4-0.4,0.6-0.5,0.8
		c-0.1,0.3-0.1,0.6-0.1,0.8c0,0.1,0,0.2,0,0.3c0,0.3,0.1,0.5,0.1,0.5c0.4,2.1-0.4,5.6-0.4,5.6c-1.1,5.2-1.7,7.8-3.2,10.2
		c-0.6,0.9-2.1,3.3-4.6,5.1c-7.3,5.3-17.7,1.5-20.2,0.7c-6.7-2.3-10.9-6.5-12.8-8.8c0.7,2.8,2.2,6.7,5,10.5c0.9,1.2,1.9,2.3,2.8,3.2
		c-5.3,1.3-11.6,3.2-18.6,6.1c-2.8,1.1-8.9,3.7-16.3,7.9c-2.5,1.4-4.8,2.8-7,4.2c2.1-2.8,5-7.1,6.9-12c2.3-5.9,1.1-7.2,2.9-14.8
		c1.7-6.9,4.2-12.2,6.1-15.8c-1.7,1.8-4.3,4.8-6.6,8.9c-0.9,1.5-1.5,2.8-2.1,4.1c-2.1,5-3,9.1-3.3,10.2c-0.5,2.1-3.8,14.2-18.6,29.1
		c-1.9,1.9-4.4,4.3-7.7,7c-0.2,0.2-0.5,0.4-0.7,0.6c-5.6,4.6-10.3,8.6-13.8,11.9c14.9-20.4,19.4-33.7,20.6-42.1
		c0.4-2.7,1.3-11,5.5-21c1.5-3.7,2.4-5,5.8-11.6c9.3-17.9,8.2-18.3,11.7-23.6c2.5-3.7,9.3-14.1,22-19.2c7.7-3.1,22.8-6.5,29.5,1.1
		c1.9,2.2,2.7,4.7,3,6.5c2.1,2,4.7,4.8,7,8.8c1.1,1.9,2.8,5.1,4.1,9.3c0.2,0.7,0.3,1.1,0.4,1.3c0.3,0.7,0.5,1.2,0.6,1.5
		c1.3,2.9,2.2,4.6,2.2,4.6c0.6,1.1,1.8,3.1,2.1,4.8C238.3,83.6,238.3,83.8,238.3,84.2z"/>
	<path class="st0" d="M159.6,145c11.2-8.2,24.6-14.6,24.6-14.6c10.7-5.1,17.1-6.6,20.5-7.3c8.3-1.7,16-3.2,23.9,0.2
		c1.8,0.8,3.8,2,13.8,12c10,9.9,15,14.9,16,17.7c4.1,11.8-8.2,20.4-12.5,36.7c-4.4,16.5,0.8,31.7,9.7,48.1
		c25.8,47.8,93.2,110.4,102.5,118.9c-6.4,6.4-12.8,12.8-19.2,19.2c-81,0-162.1,0-243.1,0c-6.5-6.4-13.1-12.9-19.6-19.4
		c12.4-6.5,28.3-15.8,45.6-28.7c28.8-21.4,46.9-41.8,52-47.6c11.9-13.7,26.6-32.9,40-58.1c-3.6-4.7-7.2-9.3-10.7-14
		c-0.9,4.1-2.3,8.6-4.1,13.4c-3.8,10-8.7,17.9-13.1,23.8c-34.4,16-68.7,32-103.1,47.9c14.6-25.1,29.1-50.3,43.6-75.4
		c-9,9.6-17.9,19.2-26.9,28.9c-19.2,2.5-38.5,4.9-57.7,7.4C99.9,196.5,144.7,156,159.6,145z"/>
</g>
</svg>
